<svg width="23" height="28" viewBox="0 0 23 28" fill="none" xmlns="http://www.w3.org/2000/svg">
<path fill-rule="evenodd" clip-rule="evenodd" d="M22 6H1V24C1 26.2091 2.79086 28 5 28H18C20.2091 28 22 26.2091 22 24V6ZM8 10.5C8 9.67157 7.32843 9 6.5 9C5.67157 9 5 9.67157 5 10.5V21.5C5 22.3284 5.67157 23 6.5 23C7.32843 23 8 22.3284 8 21.5V10.5ZM11.5 9C12.3284 9 13 9.67157 13 10.5V21.5C13 22.3284 12.3284 23 11.5 23C10.6716 23 10 22.3284 10 21.5V10.5C10 9.67157 10.6716 9 11.5 9ZM18 10.5C18 9.67157 17.3284 9 16.5 9C15.6716 9 15 9.67157 15 10.5V21.5C15 22.3284 15.6716 23 16.5 23C17.3284 23 18 22.3284 18 21.5V10.5Z" fill="white"/>
<rect y="2" width="23" height="3" rx="1.5" fill="white"/>
<path d="M7 2C7 0.895431 7.89543 0 9 0H14C15.1046 0 16 0.895431 16 2V2H7V2Z" fill="white"/>
</svg>
