<svg width="23" height="23" viewBox="0 0 23 23" fill="none" xmlns="http://www.w3.org/2000/svg">
<path d="M20.2381 8.66675C21.5794 8.66675 22.6667 9.75406 22.6667 11.0953C22.6667 12.4366 21.5794 13.5239 20.2381 13.5239H2.42857C1.08731 13.5239 0 12.4366 0 11.0953C0 9.75406 1.08731 8.66675 2.42857 8.66675H20.2381Z" fill="white"/>
<path d="M13.6666 20.2381C13.6666 21.5794 12.5793 22.6667 11.2381 22.6667C9.89681 22.6667 8.8095 21.5794 8.8095 20.2381L8.8095 2.42857C8.8095 1.08731 9.89681 -1.1306e-07 11.2381 0C12.5793 1.1306e-07 13.6666 1.08731 13.6666 2.42857L13.6666 20.2381Z" fill="white"/>
</svg>
